<svg viewBox="0 0 512 512" xmlns="http://www.w3.org/2000/svg">
  <path d="M512 131.8c0-31.7-18.2-61-46.8-74.8l-119.5-57.3c-9.1-4.4-19.2-6.7-29.5-6.7H127.6L49.2 35.7C37.5 40.5 28.9 51.1 27 63.3l-6.3 41.7C8.3 112.4 0 126.4 0 142v13.2C0 185.9 22.5 212 52.4 218.1l-11 103.8c-1 9.8 6.3 18.5 16.2 19.6l81.4 8.6c9.8 1 18.5-6.3 19.6-16.2l4.1-38.6h201.4l4.1 38.6c1 9.8 9.7 17.2 19.6 16.2l81.4-8.6c9.8-1 17.2-9.7 16.2-19.6l-11-103.8c30-6.1 52.4-32.2 52.4-62.9V142c0-15.7-8.3-29.6-20.7-37.4l-6.3-41.7c-1.9-12.2-10.5-22.8-22.2-27.6L398.4 0 319.6 35.4C334.2 42.5 344 57.3 344 74.8c0 24.8-20.2 45-45 45H104c-8.8 0-16 7.2-16 16s7.2 16 16 16H299c42.5 0 77-34.5 77-77c0-8.4-1.4-16.5-3.8-24.1L448 92.3v-.4l5.9 39.1H299.1c.6 3.1 .9 6.2 .9 9.4c0 24.5-19.4 44.6-43.7 45.8l-152.8 .1 1.7-16.3H233c.7-2.7 1-5.4 1-8.3c0-17.8-14.5-32.3-32.3-32.3c-17.8 0-32.3 14.5-32.3 32.3c0 2.8 .4 5.6 1 8.3H73.6l2.1-19.8H104c1.1 0 2.2-.1 3.3-.3 30.7-1.3 55.2-26.6 55.2-57.6c0-9.9-2.5-19.3-6.9-27.4l100.9 48.4c4.3 2.1 9 3.1 13.8 3.1H391.7l5.2 34.7c-4-.8-8-1.3-12.2-1.3H299.1c.6 3.1 .9 6.2 .9 9.4c0 27.6-22.4 50-50 50c-21.7 0-40.2-13.9-47.1-33.2l-75-37.5c-.7 1.6-1.3 3.3-1.8 5.1c-3 11-13 18.6-24.4 18.6H96.2c-10.5 0-19.2-7.9-20.4-18.1L68 121C93.6 124.5 113 146.3 113 172.8v9.4c0 7.6-1.2 15.1-3.5 22.1H352.5c-2.3-7-3.5-14.5-3.5-22.1v-9.4c0-26.5 19.4-48.3 45-51.8l-7.8-52c-1.2-10.3 9.3-28.1 25.5-28.1H478.7c10.5 0 19.2 7.9 20.4 18.1l7.8 52c-25.6 3.5-45 25.3-45 51.8v9.4c0 30.2 24.5 54.7 54.7 54.7H477v0l-10.2 97-49.3 5.2-4.1-38.5c-1-9.8-9.7-17.2-19.6-16.2l-6.2 .7H124.3l-6.2-.7c-9.8-1-18.5 6.3-19.6 16.2l-4.1 38.5-49.3-5.2L34.9 233.2c1.8 .1 3.7 .2 5.5 .2h29.3c30.2 0 54.7-24.5 54.7-54.7v-9.4c0-8.5-2-16.5-5.4-23.7H320.7c-3.5 7.2-5.4 15.2-5.4 23.7v9.4c0 30.2 24.5 54.7 54.7 54.7h29.3c1.8 0 3.7-.1 5.5-.2l-48.1 5.1 50.4-5.3h0l76-8.1c.4 0 .7-.1 1-.1c4.6-.7 9-2.8 12.4-6.3c4.4-4.5 6.7-10.6 6.3-16.8l-.4-4.2H512V131.8zM40 172.8v-9.4c0-13.5-10.9-24.4-24.4-24.4H24.4C10.9 139.1 0 150 0 163.5v9.4C0 186.3 10.9 197.2 24.4 197.2h9.3c1.8 0 3.5-.2 5.2-.5c.7-.1 1.3-.2 1.9-.4c4.8-1.1 9-3.9 12.1-7.8c3.9-4.9 6.2-11.1 6.2-17.8c0-.2 0-.5 0-.7c0-1.1-.1-2.1-.2-3.1c-.1-.5-.1-1-.2-1.5c-.1-.9-.3-1.8-.5-2.6c-.1-.5-.2-.9-.4-1.3c-.2-.8-.5-1.5-.7-2.2c-.2-.4-.3-.8-.5-1.2c-.3-.7-.7-1.4-1.1-2.1c-.2-.3-.4-.7-.6-1c-.5-.7-1-1.4-1.5-2.1l-.6-.9c-.7-.8-1.3-1.5-2.1-2.2c-.1-.1-.3-.3-.4-.4c-.5-.5-1.1-.9-1.7-1.3c-.2-.2-.5-.4-.7-.5c-.5-.4-1.1-.7-1.6-1c-.3-.2-.6-.3-.9-.5c-.5-.3-1.1-.5-1.6-.8c-.3-.1-.6-.3-1-.4c-.6-.2-1.2-.4-1.8-.6c-.3-.1-.6-.2-1-.2c-.7-.2-1.4-.3-2.2-.4c-.3 0-.5-.1-.8-.1c-1-.1-2-.2-3-.2zm472 0c0 13.5-10.9 24.4-24.4 24.4h-9.3c-13.4 0-24.4-10.9-24.4-24.4v-9.4c0-13.5 10.9-24.4 24.4-24.4h9.3c13.4 0 24.4 10.9 24.4 24.4v9.4z" fill="#0064e6"/>
</svg>
