<svg viewBox="0 0 512 512" xmlns="http://www.w3.org/2000/svg">
  <path d="M448 0H320c-35.3 0-64 28.7-64 64V448c0 35.3 28.7 64 64 64H448c35.3 0 64-28.7 64-64V64c0-35.3-28.7-64-64-64zM384 256c17.7 0 32 14.3 32 32s-14.3 32-32 32s-32-14.3-32-32s14.3-32 32-32zM244.6 52.3c-5.3 9.2-8.6 19.7-8.6 31V159.9l69.9 69.9c9.8-6 21.4-9.4 33.7-9.4c.8 0 1.5 0 2.3 0L256 134.5V101.3c0-8.2 7.9-14.2 16-13.6c45.6 3.3 87.5 25.2 118.9 59.1c5.6 6.1 15.1 6.5 21.2 1s6.5-15.1 1-21.2c-36.6-39.6-86.3-65.8-140.2-70.7c-16-1.4-29.4 3.7-39.7 15.2c-2.1 2.3-4.1 4.7-5.8 7.3l-44.7-44.7c-6.2-6.2-16.4-6.2-22.6 0s-6.2 16.4 0 22.6L244.6 52.3zM128 64c0-8.8-7.2-16-16-16s-16 7.2-16 16V198.6L22.6 224C8.4 231.2 0 246.1 0 262.2V448c0 35.3 28.7 64 64 64H192c35.3 0 64-28.7 64-64V262.2c0-16.2-8.4-31-22.6-38.2L160 198.6V192H175.6c10.8 0 19.6-8.7 19.6-19.6c0-10.8-8.7-19.6-19.6-19.6H144 128V64z" fill="#0064e6"/>
</svg>
