<svg viewBox="0 0 576 512" xmlns="http://www.w3.org/2000/svg">
  <path d="M32 32C14.3 32 0 46.3 0 64S14.3 96 32 96H544c17.7 0 32-14.3 32-32s-14.3-32-32-32H32zm0 384c-17.7 0-32 14.3-32 32s14.3 32 32 32H544c17.7 0 32-14.3 32-32s-14.3-32-32-32H32zM384 160c0-17.7-14.3-32-32-32H288c-17.7 0-32 14.3-32 32v96c0 17.7 14.3 32 32 32h64c17.7 0 32-14.3 32-32V160zM480 256c0 17.7 14.3 32 32 32h32c17.7 0 32-14.3 32-32V160c0-17.7-14.3-32-32-32H512c-17.7 0-32 14.3-32 32v96zM192 256V160c0-17.7-14.3-32-32-32H32c-17.7 0-32 14.3-32 32v96c0 17.7 14.3 32 32 32H160c17.7 0 32-14.3 32-32z" fill="#0064e6"/>
</svg>
